<svg xmlns="http://www.w3.org/2000/svg" width="100%" height="auto" viewBox="0 0 1600 980" role="img" aria-labelledby="title desc">
  <title id="title">M1 Informatics Chatbot Architecture</title>
  <desc id="desc">Responsive vector architecture diagram for the UVSQ Paris-Saclay M1 Informatics chatbot.</desc>
  <defs>
    <linearGradient id="bg" x1="0" y1="0" x2="1" y2="1">
      <stop offset="0" stop-color="#f7fbff"/><stop offset=".52" stop-color="#ffffff"/><stop offset="1" stop-color="#f4fbfd"/>
    </linearGradient>
    <linearGradient id="blue" x1="0" y1="0" x2="1" y2="0">
      <stop offset="0" stop-color="#0b57c7"/><stop offset="1" stop-color="#073f9c"/>
    </linearGradient>
    <linearGradient id="teal" x1="0" y1="0" x2="1" y2="0">
      <stop offset="0" stop-color="#08a6bd"/><stop offset="1" stop-color="#08798f"/>
    </linearGradient>
    <linearGradient id="purple" x1="0" y1="0" x2="1" y2="0">
      <stop offset="0" stop-color="#8148c6"/><stop offset="1" stop-color="#5b2a99"/>
    </linearGradient>
    <linearGradient id="gold" x1="0" y1="0" x2="1" y2="0">
      <stop offset="0" stop-color="#f1b500"/><stop offset="1" stop-color="#d69200"/>
    </linearGradient>
    <linearGradient id="green" x1="0" y1="0" x2="1" y2="0">
      <stop offset="0" stop-color="#34a843"/><stop offset="1" stop-color="#227b2f"/>
    </linearGradient>
    <filter id="shadow" x="-10%" y="-10%" width="120%" height="130%">
      <feDropShadow dx="0" dy="8" stdDeviation="7" flood-color="#0f285a" flood-opacity=".14"/>
    </filter>
    <marker id="arrow" viewBox="0 0 10 10" refX="9" refY="5" markerWidth="8" markerHeight="8" orient="auto-start-reverse">
      <path d="M0 0L10 5L0 10z" fill="#5b6472"/>
    </marker>
    <style>
      .title{font:800 40px Arial,Helvetica,sans-serif;fill:#082a73}.subtitle{font:500 25px Arial,Helvetica,sans-serif;fill:#5b667a}
      .panel{fill:#fff;stroke-width:1.4;filter:url(#shadow)}.p-blue{stroke:#0b57c7}.p-teal{stroke:#08a6bd}.p-purple{stroke:#8148c6}.p-gold{stroke:#e5a200}.p-green{stroke:#2a9638}
      .soft-blue{fill:#f8fbff}.soft-teal{fill:#f5fdff}.soft-purple{fill:#fbf8ff}.soft-gold{fill:#fffaf0}.soft-green{fill:#f6fff7}
      .header{font:800 15px Arial,Helvetica,sans-serif;fill:#fff;letter-spacing:.2px}.h{font:800 12px Arial,Helvetica,sans-serif;fill:#0b2f78}.hs{font:800 10.8px Arial,Helvetica,sans-serif;fill:#0b2f78}
      .t{font:400 12px Arial,Helvetica,sans-serif;fill:#1f2937}.ts{font:400 10.8px Arial,Helvetica,sans-serif;fill:#1f2937}.mono{font:400 9.5px Consolas,"Courier New",monospace;fill:#0b2f78}
      .card{fill:#fff;stroke:#b7c9ef;stroke-width:1.2}.ct{stroke:#afd3df}.cp{stroke:#cbb9e9}
      .ib,.it,.ip,.ig,.ix{fill:none;stroke-width:2.6;stroke-linecap:round;stroke-linejoin:round}.ib{stroke:#0b57c7}.it{stroke:#08a6bd}.ip{stroke:#8148c6}.ig{stroke:#2b9a3b}.ix{stroke:#747b86}
      .flow{stroke:#5b6472;stroke-width:2;fill:none;marker-end:url(#arrow)}.both{stroke:#5b6472;stroke-width:2;fill:none;marker-start:url(#arrow);marker-end:url(#arrow)}
      .legend{font:700 10px Arial,Helvetica,sans-serif}
    </style>
    <symbol id="user" viewBox="0 0 48 48"><circle cx="24" cy="15" r="8"/><path d="M9 41c3-9 27-9 30 0M11 8l13-6 13 6-13 6zM37 9v11"/></symbol>
    <symbol id="users" viewBox="0 0 48 48"><circle cx="18" cy="18" r="7"/><circle cx="32" cy="18" r="7"/><path d="M6 40c2-8 22-8 24 0M20 40c2-8 20-8 22 0"/></symbol>
    <symbol id="msg" viewBox="0 0 48 48"><path d="M8 10h32a5 5 0 0 1 5 5v15a5 5 0 0 1-5 5H21l-9 7v-7H8a5 5 0 0 1-5-5V15a5 5 0 0 1 5-5zM14 20h20M14 27h13"/></symbol>
    <symbol id="file" viewBox="0 0 48 48"><path d="M12 4h16l8 8v32H12zM28 4v10h8M17 25h14M17 32h14"/></symbol>
    <symbol id="image" viewBox="0 0 48 48"><rect x="7" y="9" width="34" height="30" rx="3"/><circle cx="31" cy="19" r="4"/><path d="M10 35l10-11 8 8 5-6 8 9"/></symbol>
    <symbol id="mic" viewBox="0 0 48 48"><rect x="17" y="5" width="14" height="25" rx="7"/><path d="M9 24a15 15 0 0 0 30 0M24 39v6M16 45h16"/></symbol>
    <symbol id="refresh" viewBox="0 0 48 48"><path d="M40 18A16 16 0 0 0 12 11l-4 5M8 8v8h8M8 30a16 16 0 0 0 28 7l4-5M40 40v-8h-8"/></symbol>
    <symbol id="brain" viewBox="0 0 48 48"><path d="M19 8a8 8 0 0 0-8 8 8 8 0 0 0 0 16 8 8 0 0 0 8 8M29 8a8 8 0 0 1 8 8 8 8 0 0 1 0 16 8 8 0 0 1-8 8M24 8v32M16 18h8M24 18h8M15 29h9M24 29h9"/></symbol>
    <symbol id="eye" viewBox="0 0 48 48"><path d="M4 24s7-12 20-12 20 12 20 12-7 12-20 12S4 24 4 24z"/><circle cx="24" cy="24" r="6"/></symbol>
    <symbol id="calc" viewBox="0 0 48 48"><rect x="11" y="6" width="26" height="36" rx="3"/><rect x="16" y="11" width="16" height="7" rx="1"/><path d="M17 25h.1M24 25h.1M31 25h.1M17 32h.1M24 32h.1M31 32h.1"/></symbol>
    <symbol id="bulb" viewBox="0 0 48 48"><path d="M15 21a9 9 0 1 1 18 0c0 5-4 7-5 11h-8c-1-4-5-6-5-11zM20 38h8M21 43h6M24 3v5M9 10l4 4M39 10l-4 4"/></symbol>
    <symbol id="db" viewBox="0 0 48 48"><ellipse cx="24" cy="10" rx="16" ry="6"/><path d="M8 10v28c0 3 7 6 16 6s16-3 16-6V10M8 24c0 3 7 6 16 6s16-3 16-6M8 17c0 3 7 6 16 6s16-3 16-6"/></symbol>
    <symbol id="search" viewBox="0 0 48 48"><circle cx="21" cy="21" r="13"/><path d="M31 31l11 11"/></symbol>
    <symbol id="server" viewBox="0 0 48 48"><rect x="8" y="8" width="32" height="9" rx="2"/><rect x="8" y="20" width="32" height="9" rx="2"/><rect x="8" y="32" width="32" height="9" rx="2"/><path d="M33 12h1M33 24h1M33 36h1"/></symbol>
    <symbol id="spark" viewBox="0 0 48 48"><path d="M24 4l5 15 15 5-15 5-5 15-5-15-15-5 15-5z"/></symbol>
    <symbol id="sliders" viewBox="0 0 48 48"><path d="M6 13h18M32 13h10M6 24h8M22 24h20M6 35h24M38 35h4"/><circle cx="28" cy="13" r="4"/><circle cx="18" cy="24" r="4"/><circle cx="34" cy="35" r="4"/></symbol>
    <symbol id="chart" viewBox="0 0 48 48"><path d="M7 40h34M11 40V25M22 40V16M33 40V8M9 24l12-9 10 6 10-14"/></symbol>
    <symbol id="clip" viewBox="0 0 48 48"><rect x="12" y="8" width="24" height="34" rx="3"/><path d="M19 8a5 5 0 0 1 10 0M18 18h12M18 27h12M18 36h8"/></symbol>
    <symbol id="shield" viewBox="0 0 48 48"><path d="M24 4l16 7v11c0 12-7 19-16 22C15 41 8 34 8 22V11zM17 24l5 5 10-12"/></symbol>
    <symbol id="speaker" viewBox="0 0 48 48"><path d="M6 19h10l14-10v30L16 29H6zM35 18a10 10 0 0 1 0 12M40 13a18 18 0 0 1 0 22"/></symbol>
  </defs>

  <rect width="1600" height="980" fill="url(#bg)"/>
  <circle cx="220" cy="90" r="180" fill="#eaf4ff" opacity=".35"/><circle cx="1340" cy="120" r="210" fill="#e8fbfd" opacity=".45"/><circle cx="900" cy="780" r="240" fill="#f7efff" opacity=".45"/>
  <text x="800" y="54" text-anchor="middle" class="title">M1 Informatics Chatbot Architecture</text>
  <text x="800" y="91" text-anchor="middle" class="subtitle">UVSQ / Paris-Saclay University</text>
  <path d="M330 83h75M1110 83h75" stroke="#f1b500" stroke-width="3" stroke-linecap="round"/><path d="M413 83h78M1193 83h78" stroke="#0b57c7" stroke-width="3" stroke-linecap="round"/>

  <g id="users">
    <rect x="28" y="125" width="165" height="342" rx="12" class="panel p-blue"/><path d="M28 154v-17a12 12 0 0 1 12-12h141a12 12 0 0 1 12 12v17z" fill="url(#blue)"/><text x="110" y="147" text-anchor="middle" class="header">USERS</text>
    <use href="#user" x="84" y="178" width="52" height="52" class="ib"/><text x="110" y="257" text-anchor="middle" class="h">M1 Informatics</text><text x="110" y="272" text-anchor="middle" class="h">Students</text>
    <use href="#users" x="84" y="303" width="52" height="52" class="it"/><text x="110" y="383" text-anchor="middle" class="h">Teachers /</text><text x="110" y="398" text-anchor="middle" class="h">Supervisors</text>
    <use href="#users" x="84" y="418" width="52" height="52" class="ip"/><text x="110" y="451" text-anchor="middle" class="h">Administrators</text>
  </g>

  <g id="inputs">
    <rect x="220" y="125" width="165" height="318" rx="12" class="panel p-teal"/><path d="M220 154v-17a12 12 0 0 1 12-12h141a12 12 0 0 1 12 12v17z" fill="url(#teal)"/><text x="303" y="147" text-anchor="middle" class="header">INPUTS</text>
    <use href="#msg" x="246" y="188" width="34" height="34" class="it"/><text x="298" y="211" class="t">Questions</text>
    <use href="#file" x="246" y="252" width="34" height="34" class="it"/><text x="298" y="269" class="t">Attachments</text><text x="298" y="284" class="ts">(PDF, DOCX, TXT)</text>
    <use href="#image" x="246" y="316" width="34" height="34" class="it"/><text x="298" y="334" class="t">Images</text><text x="298" y="349" class="ts">(vision)</text>
    <use href="#mic" x="246" y="380" width="34" height="34" class="it"/><text x="298" y="398" class="t">Voice</text><text x="298" y="413" class="ts">(optional)</text>
  </g>

  <g id="main-app">
    <rect x="412" y="125" width="638" height="312" rx="12" class="panel p-blue soft-blue"/><path d="M412 154v-17a12 12 0 0 1 12-12h614a12 12 0 0 1 12 12v17z" fill="url(#blue)"/><text x="731" y="147" text-anchor="middle" class="header">MAIN APPLICATION</text>
    <rect x="428" y="172" width="240" height="248" rx="10" class="card"/><text x="548" y="195" text-anchor="middle" class="h">Chatbot Interface (Streamlit)</text>
    <rect x="448" y="250" width="170" height="50" rx="8" fill="#fff" stroke="#dce6f8"/><circle cx="474" cy="273" r="11" fill="#5f7bb8"/><path d="M503 266h91M503 282h70" stroke="#c8cdd6" stroke-width="4" stroke-linecap="round"/>
    <rect x="468" y="301" width="170" height="40" rx="8" fill="#fff" stroke="#e5ebf6"/><path d="M489 325h62" stroke="#d2d6dd" stroke-width="4" stroke-linecap="round"/><rect x="448" y="366" width="202" height="40" rx="7" fill="#fff" stroke="#dce6f8"/><path d="M623 381l20-7-7 21z" fill="#0b57c7"/>
    <rect x="710" y="172" width="158" height="74" rx="9" class="card"/><use href="#refresh" x="727" y="192" width="34" height="34" class="ib"/><text x="801" y="201" text-anchor="middle" class="hs">Query</text><text x="801" y="215" text-anchor="middle" class="hs">Reformulation</text><text x="801" y="231" text-anchor="middle" class="ts">(Re-asker)</text>
    <rect x="876" y="172" width="158" height="74" rx="9" class="card"/><use href="#brain" x="893" y="192" width="34" height="34" class="ib"/><text x="966" y="201" text-anchor="middle" class="hs">Persistent</text><text x="966" y="215" text-anchor="middle" class="hs">Student Memory</text>
    <rect x="710" y="256" width="158" height="74" rx="9" class="card"/><use href="#eye" x="727" y="276" width="34" height="34" class="ib"/><text x="801" y="287" text-anchor="middle" class="hs">File Handling</text><text x="801" y="312" text-anchor="middle" class="ts">OCR / Vision</text>
    <rect x="876" y="256" width="158" height="74" rx="9" class="card"/><use href="#calc" x="893" y="276" width="34" height="34" class="ib"/><text x="966" y="286" text-anchor="middle" class="hs">Grade</text><text x="966" y="300" text-anchor="middle" class="hs">Calculator</text>
    <rect x="710" y="344" width="324" height="69" rx="9" class="card"/><use href="#bulb" x="736" y="361" width="34" height="34" class="ib"/><text x="884" y="382" text-anchor="middle" class="h">Question Suggestions</text>
  </g>

  <g id="knowledge-base">
    <rect x="1090" y="125" width="532" height="312" rx="12" class="panel p-teal soft-teal"/><path d="M1090 154v-17a12 12 0 0 1 12-12h508a12 12 0 0 1 12 12v17z" fill="url(#teal)"/><text x="1356" y="147" text-anchor="middle" class="header">KNOWLEDGE BASE (RAG)</text>
    <rect x="1105" y="175" width="223" height="80" rx="10" class="card ct"/><text x="1216" y="197" text-anchor="middle" class="h">Document Ingestion</text><use href="#file" x="1132" y="214" width="28" height="28" class="ix"/><use href="#file" x="1193" y="214" width="28" height="28" class="ib"/><use href="#file" x="1243" y="214" width="28" height="28" class="ix"/><text x="1297" y="230" text-anchor="middle" class="t">...</text>
    <rect x="1105" y="262" width="223" height="76" rx="10" class="card ct"/><text x="1216" y="284" text-anchor="middle" class="h">Chunking &amp; Cleaning</text><g stroke="#98b4da" fill="#fff" stroke-width="1.3"><rect x="1121" y="305" width="28" height="15" rx="4"/><rect x="1161" y="305" width="28" height="15" rx="4"/><rect x="1201" y="305" width="28" height="15" rx="4"/><rect x="1241" y="305" width="28" height="15" rx="4"/><rect x="1281" y="305" width="28" height="15" rx="4"/></g>
    <rect x="1105" y="348" width="223" height="72" rx="10" class="card ct"/><text x="1164" y="371" text-anchor="middle" class="h">Embeddings</text><text x="1164" y="397" text-anchor="middle" class="ts">(BAAI/bge-m3)</text><text x="1224" y="371" class="mono">[0.12, 0.45, ...]</text><text x="1224" y="387" class="mono">[0.34, 0.11, ...]</text><text x="1224" y="403" class="mono">[0.09, 0.72, ...]</text>
    <rect x="1368" y="175" width="239" height="138" rx="10" class="card ct"/><text x="1488" y="197" text-anchor="middle" class="h">ChromaDB</text><text x="1488" y="212" text-anchor="middle" class="h">Vector Store</text><use href="#db" x="1452" y="222" width="72" height="72" class="it"/><circle cx="1455" cy="298" r="15" fill="#1167d8"/><circle cx="1472" cy="298" r="15" fill="#f5a623"/><circle cx="1489" cy="298" r="15" fill="#f24361"/><text x="1515" y="307" class="t" font-size="24" font-weight="800">chroma</text>
    <rect x="1368" y="352" width="239" height="68" rx="10" class="card ct"/><use href="#search" x="1400" y="372" width="34" height="34" class="ib"/><text x="1492" y="376" text-anchor="middle" class="h">Vector Search</text><text x="1492" y="405" text-anchor="middle" class="ts">(Top-K)</text>
  </g>

  <g id="rag-pipeline">
    <rect x="385" y="463" width="925" height="142" rx="12" class="panel p-purple soft-purple"/><path d="M385 492v-17a12 12 0 0 1 12-12h901a12 12 0 0 1 12 12v17z" fill="url(#purple)"/><text x="848" y="485" text-anchor="middle" class="header">RAG PIPELINE</text>
    <rect x="407" y="506" width="126" height="76" rx="9" class="card cp"/><use href="#user" x="439" y="540" width="22" height="22" class="ix"/><use href="#msg" x="484" y="539" width="20" height="20" class="ib"/><text x="470" y="530" text-anchor="middle" class="hs">User Query</text>
    <rect x="568" y="506" width="116" height="76" rx="9" class="card cp"/><use href="#refresh" x="611" y="539" width="26" height="26" class="ib"/><text x="626" y="530" text-anchor="middle" class="hs">Reformulation</text><text x="626" y="561" text-anchor="middle" class="ts">(Re-asker)</text>
    <rect x="716" y="506" width="128" height="76" rx="9" class="card cp"/><use href="#search" x="748" y="538" width="28" height="28" class="ib"/><text x="780" y="530" text-anchor="middle" class="hs">Vector Search</text><text x="780" y="559" text-anchor="middle" class="ts">(ChromaDB)</text>
    <rect x="873" y="506" width="128" height="76" rx="9" class="card cp"/><path d="M912 558l13-16 13 8 13-20" class="ib"/><text x="937" y="530" text-anchor="middle" class="hs">Reranker</text><text x="937" y="564" text-anchor="middle" class="ts">Qwen server</text><text x="937" y="577" text-anchor="middle" class="ts">+ BAAI local</text>
    <rect x="1022" y="506" width="132" height="76" rx="9" class="card cp"/><use href="#file" x="1058" y="539" width="26" height="26" class="ix"/><text x="1088" y="530" text-anchor="middle" class="hs">Selected Context</text><text x="1088" y="560" text-anchor="middle" class="ts">(Top-N)</text>
    <rect x="1167" y="506" width="128" height="76" rx="9" class="card cp"/><use href="#spark" x="1195" y="535" width="30" height="30" class="ip"/><text x="1231" y="530" text-anchor="middle" class="hs">Answer Generation</text><text x="1231" y="562" text-anchor="middle" class="ts">(LLM)</text>
    <path d="M533 544h35M684 544h32M844 544h29M1001 544h21M1154 544h13" class="flow"/>
  </g>

  <g id="memory">
    <rect x="30" y="514" width="282" height="220" rx="12" class="panel p-gold soft-gold"/><path d="M30 544v-18a12 12 0 0 1 12-12h258a12 12 0 0 1 12 12v18z" fill="url(#gold)"/><text x="171" y="537" text-anchor="middle" class="header">MEMORY &amp; LOGS</text>
    <use href="#db" x="86" y="570" width="44" height="44" class="ix"/><text x="152" y="589" class="t" font-size="19" font-weight="800">SQLite</text><text x="135" y="621" class="t">• Persistent Student Memory</text><text x="135" y="639" class="t">• Conversation History</text><text x="135" y="657" class="t">• Feedback</text><text x="135" y="675" class="t">• Settings</text>
  </g>

  <g id="integrations">
    <rect x="1360" y="463" width="274" height="271" rx="12" class="panel p-green soft-green"/><path d="M1360 492v-17a12 12 0 0 1 12-12h250a12 12 0 0 1 12 12v17z" fill="url(#green)"/><text x="1497" y="485" text-anchor="middle" class="header">INTEGRATIONS &amp; SERVICES</text>
    <rect x="1387" y="505" width="26" height="26" rx="3" fill="#fff" stroke="#747b86"/><text x="1400" y="522" text-anchor="middle" font-family="Arial" font-size="8" font-weight="800" fill="#747b86">OCR</text><text x="1435" y="522" class="t">OCR (PDF/Image text)</text>
    <use href="#eye" x="1387" y="552" width="25" height="25" class="ig"/><text x="1435" y="571" class="t">Vision (Images)</text>
    <use href="#file" x="1387" y="595" width="25" height="25" class="ig"/><text x="1435" y="612" class="t">Export (PDF, TXT)</text>
    <use href="#speaker" x="1384" y="637" width="32" height="32" class="ig"/><text x="1435" y="655" class="t">Text-to-Speech (TTS)</text>
    <use href="#mic" x="1387" y="681" width="25" height="25" class="ig"/><text x="1435" y="700" class="t">Speech-to-Text (STT)</text>
  </g>

  <g id="llm">
    <rect x="388" y="631" width="781" height="104" rx="12" class="panel p-blue soft-blue"/><path d="M388 660v-17a12 12 0 0 1 12-12h757a12 12 0 0 1 12 12v17z" fill="url(#blue)"/><text x="779" y="653" text-anchor="middle" class="header">GENERATION ENGINES (LLM)</text>
    <rect x="414" y="663" width="360" height="50" rx="8" fill="#fff" stroke="#7aa3eb"/><use href="#spark" x="449" y="674" width="30" height="30" class="ip"/><text x="615" y="688" text-anchor="middle" class="h">Gemini 2.5 Flash</text><text x="615" y="706" text-anchor="middle" class="ts">Default LLM</text>
    <path d="M781 688h72" class="both"/><rect x="859" y="663" width="286" height="50" rx="8" fill="#fff" stroke="#c8c7cf"/><use href="#server" x="895" y="671" width="36" height="36" class="ix"/><text x="1015" y="688" text-anchor="middle" class="h">UVSQ vLLM Server</text><text x="1015" y="706" text-anchor="middle" class="ts">Qwen/Qwen3-30B-A3B backup</text>
  </g>

  <g id="admin">
    <rect x="210" y="763" width="561" height="104" rx="12" class="panel p-blue soft-blue"/><path d="M210 792v-17a12 12 0 0 1 12-12h537a12 12 0 0 1 12 12v17z" fill="url(#blue)"/><text x="491" y="785" text-anchor="middle" class="header">ADMIN DASHBOARD (Streamlit)</text>
    <use href="#users" x="262" y="806" width="38" height="38" class="ib"/><text x="282" y="852" text-anchor="middle" class="ts">Conversation</text><text x="282" y="866" text-anchor="middle" class="ts">Logs</text>
    <use href="#sliders" x="402" y="803" width="42" height="42" class="ib"/><text x="423" y="852" text-anchor="middle" class="ts">System</text><text x="423" y="866" text-anchor="middle" class="ts">Settings</text>
    <use href="#db" x="545" y="803" width="42" height="42" class="ib"/><text x="566" y="852" text-anchor="middle" class="ts">Sources &amp;</text><text x="566" y="866" text-anchor="middle" class="ts">Ingestion</text>
    <use href="#chart" x="664" y="800" width="50" height="50" class="ib"/><text x="689" y="859" text-anchor="middle" class="ts">Monitoring</text>
  </g>

  <g id="evaluation">
    <rect x="840" y="763" width="481" height="104" rx="12" class="panel p-purple soft-purple"/><path d="M840 792v-17a12 12 0 0 1 12-12h457a12 12 0 0 1 12 12v17z" fill="url(#purple)"/><text x="1081" y="785" text-anchor="middle" class="header">EVALUATION &amp; REPORTS</text>
    <use href="#clip" x="884" y="801" width="50" height="50" class="ip"/><text x="909" y="859" text-anchor="middle" class="ts">Evaluation</text><text x="909" y="873" text-anchor="middle" class="ts">Sets</text>
    <use href="#chart" x="1026" y="801" width="50" height="50" class="ip"/><use href="#spark" x="1072" y="797" width="22" height="22" class="ip"/><text x="1056" y="859" text-anchor="middle" class="ts">RAG &amp; Answer</text><text x="1056" y="873" text-anchor="middle" class="ts">Metrics</text>
    <use href="#file" x="1188" y="806" width="40" height="40" class="ip"/><text x="1224" y="859" text-anchor="middle" class="ts">Reports &amp;</text><text x="1224" y="873" text-anchor="middle" class="ts">Export</text>
  </g>

  <path d="M193 268h27M385 268h27M1050 276h40M312 562h73M1310 545h50" class="both"/>
  <path d="M805 437v26M1183 437v26M805 605v26M1015 605v26M501 735v28M1015 735v28" class="both"/>
  <path d="M1216 255v24M1216 338v10M1328 215h32M1488 313v39" class="flow"/>

  <g id="legend">
    <rect x="70" y="885" width="1242" height="45" rx="8" fill="#fff" stroke="#c9d1dc"/>
    <path d="M92 908h52" stroke="#0b57c7" stroke-width="4"/><text x="156" y="912" class="legend" fill="#0b57c7">Interface &amp; Orchestration</text>
    <path d="M264 908h52" stroke="#08a6bd" stroke-width="4"/><text x="328" y="912" class="legend" fill="#08798f">Knowledge &amp; Data</text>
    <path d="M442 908h52" stroke="#8148c6" stroke-width="4"/><text x="506" y="912" class="legend" fill="#8148c6">RAG Processing</text>
    <path d="M620 908h52" stroke="#e5a200" stroke-width="4"/><text x="684" y="912" class="legend" fill="#d69200">Persistence</text>
    <path d="M794 908h52" stroke="#2a9638" stroke-width="4"/><text x="858" y="912" class="legend" fill="#2a9638">Integrations</text>
    <path d="M970 908h52" stroke="#2577cf" stroke-width="4"/><text x="1034" y="912" class="legend" fill="#2577cf">Administration</text>
    <path d="M1146 908h52" stroke="#c04a9b" stroke-width="4"/><text x="1210" y="912" class="legend" fill="#c04a9b">Evaluation</text>
    <rect x="1340" y="885" width="230" height="45" rx="8" fill="#fff" stroke="#c9d1dc"/><use href="#shield" x="1361" y="895" width="28" height="28" class="ib"/><text x="1413" y="913" class="h">Secure  •  Modular  •  Extensible</text>
  </g>
</svg>
